<?xml version="1.0" encoding="utf-8"?>
<!-- Generator: Adobe Illustrator 16.0.0, SVG Export Plug-In . SVG Version: 6.00 Build 0)  -->
<!DOCTYPE svg PUBLIC "-//W3C//DTD SVG 1.1//EN" "http://www.w3.org/Graphics/SVG/1.1/DTD/svg11.dtd">
<svg version="1.1" id="Layer_1" xmlns="http://www.w3.org/2000/svg" xmlns:xlink="http://www.w3.org/1999/xlink" x="0px" y="0px"
	 width="200px" height="162.536px" viewBox="0 0 200 162.536" enable-background="new 0 0 200 162.536" xml:space="preserve">
<g id="Livello_x0020_1">
	<path fill="#FFFFFF" d="M199.996,19.25c-7.372,3.253-15.281,5.462-23.578,6.447c8.477-5.074,14.982-13.132,18.027-22.712
		c-7.939,4.716-16.714,8.118-26.055,9.968C160.898,4.984,150.244,0,138.426,0c-22.652,0-41.037,18.385-41.037,41.037
		c0,3.223,0.358,6.357,1.074,9.341C64.35,48.677,34.117,32.322,13.882,7.491C10.36,13.55,8.331,20.593,8.331,28.114
		c0,14.236,7.252,26.801,18.265,34.143c-6.715-0.209-13.042-2.06-18.593-5.133c0,0.179,0,0.328,0,0.507
		c0,19.877,14.146,36.471,32.919,40.231c-3.432,0.926-7.073,1.433-10.804,1.433c-2.656,0-5.223-0.269-7.73-0.746
		c5.223,16.296,20.384,28.174,38.321,28.502c-14.057,11.013-31.725,17.579-50.975,17.579c-3.313,0-6.566-0.209-9.789-0.567
		c18.146,11.64,39.724,18.444,62.913,18.444c75.478,0,116.753-62.525,116.753-116.754c0-1.791-0.029-3.552-0.119-5.312
		c8.028-5.79,14.982-13.012,20.474-21.25L199.996,19.25z"/>
</g>
</svg>
